<svg xmlns="http://www.w3.org/2000/svg" width="256" height="256" viewBox="0 0 100 100"><rect width="100" height="100" rx="20" fill="#ff3e00"></rect><path d="M46.59 59.51L60.35 21.72L66.85 21.72L50.90 65.53Q49.71 68.83 48.86 72.19Q48.00 75.55 48.00 78.32L48.00 78.32Q48.00 80.12 48.42 81.62Q48.84 83.11 49.69 84.17Q50.55 85.22 51.85 85.82Q53.14 86.41 54.90 86.41L54.90 86.41Q57.89 86.41 61.07 84.67Q64.26 82.94 67.40 79.93Q70.54 76.92 73.60 72.83Q76.65 68.74 79.36 64.04Q82.06 59.34 84.37 54.22Q86.67 49.10 88.34 44.02Q90.01 38.95 90.94 34.11Q91.86 29.28 91.86 25.15L91.86 25.15Q91.86 22.25 91.46 20.25Q91.07 18.25 90.56 16.89Q90.06 15.52 89.66 14.69Q89.27 13.85 89.27 13.33L89.27 13.33Q89.27 12.76 89.81 12.10Q90.36 11.44 91.42 11.44L91.42 11.44Q92.43 11.44 93.13 12.25Q93.84 13.06 94.25 14.40Q94.67 15.74 94.85 17.46Q95.02 19.17 95.02 21.02L95.02 21.02Q95.02 25.54 94.08 30.84Q93.13 36.14 91.42 41.74Q89.70 47.34 87.31 52.99Q84.91 58.64 82.01 63.82Q79.11 69.01 75.75 73.53Q72.39 78.06 68.76 81.40Q65.14 84.74 61.34 86.65Q57.54 88.56 53.71 88.56L53.71 88.56Q50.86 88.56 48.75 87.49Q46.64 86.41 45.25 84.58Q43.87 82.76 43.21 80.37Q42.55 77.97 42.55 75.29L42.55 75.29Q42.55 72.92 43.08 70.46L43.08 70.46Q40.71 74.46 38.11 77.77Q35.52 81.09 32.80 83.49Q30.07 85.88 27.26 87.22Q24.45 88.56 21.63 88.56L21.63 88.56Q19.48 88.56 17.41 87.75Q15.35 86.94 13.75 85.42Q12.14 83.90 11.17 81.73Q10.21 79.55 10.21 76.78L10.21 76.78Q10.21 74.37 10.95 71.27Q11.70 68.17 12.91 64.66Q14.12 61.14 15.68 57.34Q17.24 53.54 18.89 49.65Q20.53 45.76 22.09 41.98Q23.65 38.20 24.86 34.73Q26.07 31.26 26.82 28.25Q27.57 25.24 27.57 22.91L27.57 22.91Q27.57 21.85 27.37 20.91Q27.17 19.96 26.73 19.28Q26.29 18.60 25.52 18.21Q24.75 17.81 23.65 17.81L23.65 17.81Q21.77 17.81 19.63 19.06Q17.50 20.31 15.26 22.91Q13.02 25.50 10.71 29.48Q8.41 33.45 6.16 38.86L6.16 38.86L4.98 38.07Q7.48 31.96 9.97 27.76Q12.45 23.57 15.00 21.00Q17.55 18.43 20.14 17.28Q22.73 16.14 25.41 16.14L25.41 16.14Q29.41 16.14 31.63 18.29Q33.85 20.45 33.85 24.31L33.85 24.31Q33.85 26.60 33.10 29.70Q32.36 32.80 31.10 36.42Q29.85 40.05 28.27 44.02Q26.69 48.00 25.04 52.07Q23.39 56.13 21.81 60.09Q20.23 64.04 18.97 67.58Q17.72 71.12 16.98 74.10Q16.23 77.09 16.23 79.20L16.23 79.20Q16.23 80.78 16.69 82.10Q17.15 83.42 17.99 84.39Q18.82 85.35 20.01 85.88Q21.19 86.41 22.64 86.41L22.64 86.41Q25.59 86.41 28.80 84.26Q32.00 82.10 35.12 78.41Q38.24 74.72 41.19 69.84Q44.13 64.96 46.59 59.51L46.59 59.51Z" fill="#fff"></path></svg>