<?xml version="1.0" standalone="no"?>
<!DOCTYPE svg PUBLIC "-//W3C//DTD SVG 20010904//EN"
 "http://www.w3.org/TR/2001/REC-SVG-20010904/DTD/svg10.dtd">
<svg version="1.0" xmlns="http://www.w3.org/2000/svg"
 width="700.000000pt" height="700.000000pt" viewBox="0 0 700.000000 700.000000"
 preserveAspectRatio="xMidYMid meet">
<metadata>
Created by potrace 1.14, written by Peter Selinger 2001-2017
</metadata>
<g transform="translate(0.000000,700.000000) scale(0.100000,-0.100000)"
fill="#000000" stroke="none">
<path d="M1230 6989 c-232 -27 -499 -137 -687 -282 -86 -66 -216 -202 -282
-294 -111 -155 -189 -334 -233 -536 l-23 -102 0 -2275 0 -2275 23 -102 c62
-280 183 -507 374 -702 231 -234 530 -378 855 -411 76 -8 770 -10 2318 -8
l2210 4 97 22 c564 130 966 533 1090 1095 l23 102 0 2275 0 2275 -23 102 c-63
286 -189 518 -387 714 -197 195 -420 316 -703 381 l-97 22 -2240 2 c-1235 1
-2274 -2 -2315 -7z m5237 -806 c72 -34 133 -158 164 -333 21 -116 18 -567 -4
-745 -131 -1020 -612 -2239 -1234 -3127 -148 -212 -311 -407 -483 -579 -421
-421 -821 -619 -1205 -596 -120 8 -196 27 -291 73 -278 136 -434 444 -434 854
0 69 7 168 14 220 8 52 14 96 13 97 -1 1 -31 -45 -66 -101 -273 -442 -631
-827 -926 -996 -231 -132 -447 -176 -653 -134 -309 63 -542 283 -623 589 -25
95 -30 293 -10 420 34 224 159 634 304 1000 41 105 184 451 317 769 323 775
441 1091 514 1382 89 356 84 593 -17 703 -80 87 -244 94 -412 17 -303 -138
-644 -600 -940 -1271 -31 -71 -59 -133 -62 -137 -2 -4 -22 4 -44 19 -46 30
-48 18 28 193 260 596 544 1005 836 1203 73 49 194 106 284 134 78 23 105 26
238 27 119 1 162 -3 209 -17 210 -65 333 -200 373 -410 42 -219 -25 -553 -218
-1096 -45 -124 -214 -557 -376 -961 -407 -1016 -485 -1227 -563 -1535 -45
-176 -60 -274 -60 -394 0 -265 144 -454 377 -493 60 -10 86 -9 160 4 213 38
405 159 654 414 283 291 572 725 824 1239 96 196 136 301 586 1538 l483 1327
229 0 c214 0 229 -1 222 -17 -40 -104 -1151 -3164 -1175 -3238 -84 -263 -140
-544 -140 -704 0 -171 56 -343 141 -436 91 -98 257 -148 424 -127 437 57 940
492 1430 1237 435 662 808 1522 971 2240 75 330 99 526 98 805 0 294 -29 447
-129 685 -50 120 -54 155 -25 203 41 67 124 90 197 55z"/>
</g>
</svg>
